/vscmnt/brussel_pixiu_data/_data_brussel/112/vsc11236/PredSimResults/SUBJ11mtu3D/weighted-trackIG/worker_05.mot
version=1
nRows=6
nColumns=50
inDegrees=yes
endheader
                time	         pelvis_tilt	         pelvis_list	     pelvis_rotation	           pelvis_tx	           pelvis_ty	           pelvis_tz	       hip_flexion_r	     hip_adduction_r	      hip_rotation_r	        knee_angle_r	       ankle_angle_r	         mtp_angle_r	       hip_flexion_l	     hip_adduction_l	      hip_rotation_l	        knee_angle_l	       ankle_angle_l	         mtp_angle_l	    lumbar_extension	      lumbar_bending	     lumbar_rotation	 ercspn_r/activation	 intobl_r/activation	 extobl_r/activation	    abd_r/activation	    add_r/activation	hamstrings_r/activation	bifemsh_r/activation	glut_max_r/activation	iliopsoas_r/activation	rect_fem_r/activation	  vasti_r/activation	gastroc_r/activation	 soleus_r/activation	tib_ant_r/activation	 ercspn_l/activation	 intobl_l/activation	 extobl_l/activation	    abd_l/activation	    add_l/activation	hamstrings_l/activation	bifemsh_l/activation	glut_max_l/activation	iliopsoas_l/activation	rect_fem_l/activation	  vasti_l/activation	gastroc_l/activation	 soleus_l/activation	tib_ant_l/activation	
          2.16098776	         -5.88384087	          5.05185558	         -8.25543847	          2.09615813	          0.94295505	          0.01806936	        -11.34489781	         -5.41510709	          5.03575543	         -7.23176429	         13.00590665	         25.66099631	         30.37187713	          1.61100333	         -4.08982891	         -4.51690256	          5.27491497	          0.22916164	         -3.60190160	         -3.08586093	          1.98585387	          0.04102098	          0.01000155	          0.01000398	          0.05510961	          0.02948415	          0.02527459	          0.12937746	          0.05594181	          0.45161146	          0.01001040	          0.01000321	          0.35752737	          0.26452013	          0.01000167	          0.07996927	          0.12228304	          0.02656853	          0.01240220	          0.12617360	          0.04563198	          0.16818780	          0.02868291	          0.08602388	          0.01354462	          0.01000462	          0.01014153	          0.01000141	          0.27692241	
          2.17539434	         -6.02407905	          4.85772662	         -8.27234058	          2.11358463	          0.94071877	          0.01714142	        -11.62343589	         -5.28986369	          4.63262448	         -8.45347481	         12.60144287	         27.54637042	         30.41926997	          1.61874093	         -4.06035071	         -6.11046735	          4.86712419	          0.18953604	         -3.29255793	         -3.33370919	          2.16821372	          0.06375888	          0.01000218	          0.01000701	          0.04443973	          0.05970335	          0.02420881	          0.10432958	          0.04511098	          0.45359287	          0.01001523	          0.01000771	          0.32958685	          0.25231530	          0.01000075	          0.06449295	          0.12054546	          0.02142458	          0.01000653	          0.13902859	          0.05371212	          0.13563272	          0.06805176	          0.06936821	          0.01092407	          0.01000296	          0.01724854	          0.01241593	          0.30319792	
          2.18980093	         -6.14226684	          4.65496460	         -8.23716148	          2.13132078	          0.93889981	          0.01611695	        -11.70713820	         -5.14070785	          4.20637568	        -10.08618259	         12.06119733	         29.54235433	         30.25211682	          1.61836496	         -4.04677044	         -7.41027789	          4.31077073	          0.18002462	         -2.97918567	         -3.58569400	          2.33102850	          0.08452090	          0.01000131	          0.01000427	          0.03583562	          0.05356778	          0.02515661	          0.08413128	          0.03637700	          0.44224179	          0.01001902	          0.01348388	          0.29827645	          0.23471321	          0.01000054	          0.07571283	          0.09720681	          0.01727661	          0.07303471	          0.15353323	          0.05683839	          0.10937999	          0.08208228	          0.05593737	          0.01000310	          0.01000090	          0.01390960	          0.01001236	          0.34412162	
          2.20420752	         -6.23760958	          4.44412822	         -8.15212689	          2.14910469	          0.93774327	          0.01499584	        -11.51187376	         -4.96707285	          3.76383061	        -12.22842513	         11.31489682	         31.65774704	         29.94383105	          1.62008977	         -4.07471914	         -8.49457888	          3.68751385	          0.14018202	         -2.68496387	         -3.84173478	          2.46850361	          0.11098853	          0.01000133	          0.01000439	          0.02889734	          0.06273658	          0.02557037	          0.06784411	          0.02933393	          0.41678562	          0.01001812	          0.01239141	          0.24052735	          0.19279064	          0.01000051	          0.08104081	          0.07838633	          0.01393184	          0.11316300	          0.17414727	          0.05202462	          0.08820447	          0.10610822	          0.04510699	          0.01000666	          0.01001165	          0.01189770	          0.01016656	          0.37092900	
          2.21861410	         -6.30761746	          4.23304898	         -8.02121129	          2.16674168	          0.93734834	          0.01379827	        -10.98298942	         -4.77708191	          3.29672486	        -14.94993368	         10.35263205	         33.79564212	         29.56907569	          1.62817747	         -4.14987121	         -9.53450116	          3.24951232	          0.11132817	         -2.42291867	         -4.11089225	          2.57506173	          0.12624368	          0.01000155	          0.01000468	          0.02330239	          0.08008221	          0.03125153	          0.05471193	          0.02365445	          0.37261118	          0.01000678	          0.01000360	          0.19395665	          0.15546284	          0.01000054	          0.07711034	          0.06320972	          0.01123494	          0.12877919	          0.17178613	          0.05155768	          0.07112877	          0.10428106	          0.03637357	          0.01000502	          0.05223036	          0.01000982	          0.01000708	          0.39186980	
          2.23302069	         -6.35159534	          4.02119411	         -7.84786900	          2.18410924	          0.93768840	          0.01255484	        -10.10738791	         -4.57419377	          2.78957443	        -18.24608041	          9.15166334	         35.81940017	         29.11252682	          1.64172526	         -4.24861579	        -10.46724204	          2.91903506	          0.08719156	         -2.20057859	         -4.39286474	          2.64790076	          0.13292404	          0.01000213	          0.01000492	          0.01879070	          0.09446150	          0.03695908	          0.04413012	          0.01907460	          0.31659564	          0.01000328	          0.01000104	          0.15640288	          0.12536228	          0.01000063	          0.07060705	          0.05097156	          0.01000186	          0.13344121	          0.13852801	          0.05335898	          0.05735910	          0.09714233	          0.02933111	          0.01000412	          0.11732068	          0.01000944	          0.01000663	          0.39963284	
